<?xml version="1.0" encoding="UTF-8" standalone="no"?>
<!DOCTYPE svg PUBLIC "-//W3C//DTD SVG 1.1//EN" "http://www.w3.org/Graphics/SVG/1.1/DTD/svg11.dtd">
<svg version="1.1" xmlns="http://www.w3.org/2000/svg" xmlns:xlink="http://www.w3.org/1999/xlink" preserveAspectRatio="xMidYMid meet" viewBox="-6.000000060003499 -5.951351374131355 148.99868752513967 55.89953578931223" width="137" height="43.9"><defs><path d="M17.03 35.27C16.49 35.58 15.83 35.58 15.29 35.27C14.43 34.77 7.53 30.79 6.67 30.3C6.16 30 5.84 29.45 5.84 28.85C5.84 26.29 5.85 5.81 5.85 3.25C5.85 2.64 5.54 2.08 5.02 1.76C4.78 1.62 2.9 0.45 2.66 0.31C1.84 -0.2 0.77 0.06 0.26 0.88C0.09 1.15 0 1.47 0 1.79C0 4.83 0 29.14 0 32.18C0 32.8 0.33 33.38 0.87 33.69C2.31 34.52 13.85 41.18 15.29 42.01C15.83 42.32 16.49 42.32 17.03 42.01C17.62 41.67 22.3 38.97 22.89 38.63C23.43 38.32 23.76 37.75 23.76 37.12C23.76 36.85 23.76 34.68 23.76 34.41C23.76 33.45 22.98 32.67 22.02 32.67C21.71 32.66 21.41 32.75 21.14 32.9C20.32 33.37 17.86 34.8 17.03 35.27Z" id="c1weo9r8Rq"></path><path d="M26.47 17.97C27.01 18.29 27.34 18.86 27.34 19.48C27.34 19.48 27.34 19.48 27.34 19.48C27.33 31.31 27.32 37.88 27.32 39.19C27.32 39.83 27.66 40.41 28.22 40.72C28.45 40.85 30.34 41.89 30.57 42.02C31.41 42.49 32.48 42.19 32.94 41.35C33.09 41.09 33.16 40.8 33.16 40.5C33.17 38.06 33.18 18.55 33.18 16.12C33.18 15.49 32.84 14.91 32.3 14.6C30.86 13.77 19.33 7.11 17.89 6.28C17.35 5.97 16.68 5.97 16.14 6.28C15.56 6.62 10.88 9.32 10.3 9.65C9.76 9.97 9.43 10.54 9.43 11.16C9.43 11.44 9.43 13.6 9.43 13.88C9.43 14.84 10.21 15.62 11.17 15.62C11.48 15.62 11.78 15.54 12.04 15.39C12.45 15.15 15.73 13.26 16.14 13.02C16.68 12.71 17.35 12.71 17.88 13.02C17.88 13.02 25.61 17.48 26.47 17.97Z" id="cbzY5LYQy"></path><path d="M50.68 11.33C49.98 11.02 49.22 10.87 48.45 10.88C47.84 10.87 47.24 10.97 46.66 11.15C46.39 11.25 46.12 11.35 45.86 11.48C45.86 11.19 45.86 9.75 45.86 7.16L43.4 7.16L43.4 22.42C43.5 22.45 43.55 22.46 43.57 22.46C44.03 22.6 44.63 22.73 45.35 22.86C46.18 23 47.03 23.06 47.87 23.06C48.69 23.07 49.51 22.92 50.28 22.63C50.97 22.36 51.6 21.95 52.12 21.41C52.65 20.86 53.05 20.21 53.31 19.49C53.59 18.68 53.73 17.83 53.72 16.97C53.72 16.15 53.61 15.32 53.37 14.53C53.16 13.83 52.81 13.17 52.35 12.6C51.89 12.06 51.33 11.63 50.68 11.33ZM50.26 19.84C50.26 19.84 50.26 19.84 50.26 19.84C49.64 20.51 48.76 20.87 47.84 20.83C47.4 20.83 46.95 20.81 46.51 20.75C46.25 20.72 46.03 20.68 45.86 20.64C45.86 19.96 45.86 14.53 45.86 13.86C46.14 13.66 46.45 13.5 46.77 13.38C47.22 13.2 47.7 13.11 48.19 13.11C48.66 13.1 49.13 13.2 49.56 13.4C49.92 13.58 50.24 13.86 50.47 14.19C50.73 14.56 50.91 14.97 51 15.41C51.11 15.92 51.17 16.44 51.16 16.97C51.23 18.01 50.91 19.03 50.26 19.84Z" id="d8jH9FDCu7"></path><mask id="maskgl7h6W4Pk" x="41.4" y="5.16" width="14.32" height="19.9" maskUnits="userSpaceOnUse"><rect x="41.4" y="5.16" width="14.32" height="19.9" fill="white"></rect><use xlink:href="#d8jH9FDCu7" opacity="1" fill="black"></use></mask><path d="M63.03 11.3C61.63 10.72 60.04 10.72 58.63 11.3C57.97 11.59 57.37 12.01 56.88 12.55C56.38 13.12 56 13.78 55.75 14.49C55.22 16.1 55.22 17.85 55.75 19.46C56 20.17 56.38 20.82 56.88 21.39C57.37 21.92 57.97 22.35 58.63 22.64C60.04 23.22 61.63 23.22 63.03 22.64C63.7 22.35 64.3 21.92 64.78 21.39C65.28 20.82 65.67 20.17 65.91 19.46C66.45 17.85 66.45 16.1 65.91 14.49C65.67 13.78 65.28 13.12 64.78 12.55C64.3 12.01 63.7 11.59 63.03 11.3ZM58.7 14.11C59.65 12.93 61.37 12.75 62.55 13.7C62.7 13.82 62.84 13.96 62.96 14.11C64.03 15.87 64.03 18.07 62.96 19.83C62.01 21.01 60.29 21.19 59.11 20.24C58.96 20.12 58.82 19.98 58.7 19.83C58.7 19.83 58.7 19.83 58.7 19.83C58.12 18.99 57.84 17.98 57.9 16.97C57.84 15.95 58.12 14.95 58.7 14.11Z" id="eLgzRjO6k"></path><mask id="maskd1SKb2qDWl" x="53.35" y="8.86" width="14.97" height="16.21" maskUnits="userSpaceOnUse"><rect x="53.35" y="8.86" width="14.97" height="16.21" fill="white"></rect><use xlink:href="#eLgzRjO6k" opacity="1" fill="black"></use></mask><path d="M61.59 37.47C61.53 37.2 61.5 36.93 61.5 36.65C61.5 35.95 61.5 32.43 61.5 26.09L59.5 26.09C59.5 32.62 59.5 36.25 59.5 36.98C59.43 37.83 59.71 38.68 60.28 39.32C61.02 39.9 61.96 40.19 62.9 40.12C62.93 39.95 63.15 38.61 63.18 38.44C62.91 38.41 62.65 38.35 62.38 38.28C62.19 38.23 62.01 38.13 61.87 37.99C61.73 37.84 61.63 37.67 61.59 37.47Z" id="azNj7RSZS"></path><mask id="maskfSnFHH4oa" x="57.49" y="24.09" width="7.69" height="18.04" maskUnits="userSpaceOnUse"><rect x="57.49" y="24.09" width="7.69" height="18.04" fill="white"></rect><use xlink:href="#azNj7RSZS" opacity="1" fill="black"></use></mask><path d="M67.49 28.8C66.87 29.04 66.31 29.42 65.85 29.9C65.35 30.43 64.96 31.05 64.71 31.74C64.41 32.57 64.26 33.45 64.28 34.33C64.27 35.12 64.38 35.91 64.61 36.67C64.82 37.35 65.17 37.97 65.64 38.51C66.12 39.04 66.72 39.46 67.39 39.72C68.2 40.03 69.05 40.18 69.92 40.16C70.62 40.17 71.31 40.1 72 39.95C72.44 39.86 72.87 39.72 73.28 39.54C73.25 39.37 73.02 38.03 73 37.86C72.65 38.01 72.28 38.13 71.91 38.22C71.33 38.35 70.73 38.41 70.13 38.4C69.13 38.48 68.14 38.16 67.38 37.49C66.74 36.76 66.38 35.82 66.37 34.85C67.13 34.85 73.26 34.85 74.03 34.85C74.04 34.72 74.05 34.6 74.05 34.47C74.05 34.44 74.05 34.17 74.05 34.14C74.17 32.61 73.74 31.09 72.85 29.85C71.97 28.87 70.69 28.35 69.38 28.43C68.73 28.43 68.09 28.56 67.49 28.8ZM66.41 33.23C66.46 32.84 66.55 32.46 66.68 32.09C66.81 31.73 67 31.39 67.25 31.1C67.5 30.81 67.81 30.57 68.15 30.4C68.53 30.22 68.95 30.12 69.37 30.13C70.11 30.1 70.83 30.42 71.29 31C71.78 31.64 72.02 32.43 71.97 33.23C70.86 33.23 67.52 33.23 66.41 33.23Z" id="b9TFQo5ES"></path><mask id="maska5vXp7eSWD" x="62.28" y="26.42" width="13.79" height="15.74" maskUnits="userSpaceOnUse"><rect x="62.28" y="26.42" width="13.79" height="15.74" fill="white"></rect><use xlink:href="#b9TFQo5ES" opacity="1" fill="black"></use></mask><path d="M80.15 37.75C79.63 36.65 79.26 35.7 79.16 35.47C78.69 34.29 78.37 33.34 78.28 33.1C77.87 31.92 77.61 31.03 77.54 30.8C77.31 30.05 77.12 29.36 76.96 28.71C75.67 28.71 74.96 28.71 74.81 28.71C75.33 30.71 75.98 32.67 76.76 34.58C77.93 37.47 79.04 39.51 79.29 40.05C79.03 40.71 78.61 41.3 78.08 41.77C77.54 42.15 76.89 42.33 76.23 42.29C75.98 42.29 75.73 42.26 75.49 42.19C75.28 42.14 75.07 42.07 74.88 41.99C74.84 42.15 74.55 43.44 74.51 43.6C74.6 43.65 74.7 43.68 74.8 43.71C74.94 43.75 75.09 43.79 75.25 43.83C75.42 43.86 75.59 43.89 75.76 43.92C75.92 43.94 76.09 43.95 76.26 43.95C76.79 43.96 77.33 43.88 77.84 43.73C78.3 43.59 78.73 43.37 79.1 43.06C79.5 42.74 79.84 42.35 80.12 41.91C80.47 41.38 80.77 40.82 81.02 40.24C82.12 37.71 82.86 35.33 83.06 34.79C83.7 32.84 84.27 30.82 84.79 28.71C83.55 28.71 82.86 28.71 82.72 28.71C82.35 30.28 81.97 31.8 81.57 33.27C80.72 35.96 80.25 37.45 80.15 37.75Z" id="e2RIbB6s2i"></path><mask id="maskbiMK8SuOm" x="72.51" y="26.71" width="14.27" height="19.24" maskUnits="userSpaceOnUse"><rect x="72.51" y="26.71" width="14.27" height="19.24" fill="white"></rect><use xlink:href="#e2RIbB6s2i" opacity="1" fill="black"></use></mask><path d="M105.71 20.33C105.57 20.38 105.32 20.48 104.96 20.62C104.96 20.62 104.96 20.62 104.96 20.62C104.51 20.76 104.05 20.82 103.58 20.81C103.3 20.81 103.02 20.77 102.75 20.69C102.54 20.62 102.35 20.49 102.21 20.32C102.04 20.09 101.93 19.83 101.87 19.55C101.78 19.11 101.74 18.67 101.75 18.22C101.75 17.89 101.75 16.24 101.75 13.28L105.99 13.28L105.99 11.14L101.75 11.14L101.75 8.01L99.28 8.02C99.28 14.15 99.28 17.56 99.28 18.24C99.27 18.92 99.34 19.59 99.47 20.26C99.58 20.81 99.81 21.33 100.15 21.78C100.49 22.21 100.94 22.54 101.45 22.73C102.08 22.95 102.74 23.05 103.41 23.03C104.02 23.04 104.62 22.96 105.2 22.8C105.58 22.7 105.94 22.56 106.3 22.41C106.31 22.4 106.36 22.37 106.46 22.32L105.97 20.23C105.83 20.28 105.75 20.31 105.71 20.33Z" id="a30gci4o2F"></path><mask id="maskm1gwun42" x="97.28" y="6.01" width="11.18" height="19.02" maskUnits="userSpaceOnUse"><rect x="97.28" y="6.01" width="11.18" height="19.02" fill="white"></rect><use xlink:href="#a30gci4o2F" opacity="1" fill="black"></use></mask><path d="M113.58 11.03C113.36 10.99 113.13 10.96 112.9 10.94C112.68 10.91 112.47 10.9 112.29 10.9C111.48 10.9 110.67 10.97 109.88 11.14C109.27 11.26 108.67 11.42 108.08 11.63C108.07 11.63 108.02 11.65 107.93 11.68L107.93 22.8L110.39 22.8C110.39 17.13 110.39 13.97 110.39 13.34C110.52 13.31 110.7 13.28 110.93 13.23C111.28 13.15 111.63 13.11 111.99 13.11C112.45 13.1 112.9 13.14 113.35 13.23C113.61 13.28 113.86 13.34 114.11 13.43C114.12 13.43 114.21 13.46 114.36 13.52L114.79 11.31C114.68 11.27 114.62 11.25 114.6 11.25C114.46 11.2 114.32 11.16 114.18 11.14C113.99 11.1 113.8 11.06 113.58 11.03Z" id="bbudQhY1q"></path><mask id="maskad0Mt5n5P" x="105.93" y="8.9" width="10.87" height="15.89" maskUnits="userSpaceOnUse"><rect x="105.93" y="8.9" width="10.87" height="15.89" fill="white"></rect><use xlink:href="#bbudQhY1q" opacity="1" fill="black"></use></mask><path d="M122.2 11.19C121.52 10.96 120.8 10.84 120.08 10.86C119.41 10.86 118.74 10.91 118.08 11.03C117.63 11.09 117.17 11.21 116.74 11.38C116.73 11.38 116.68 11.41 116.58 11.45L116.88 13.57C117.04 13.5 117.14 13.47 117.15 13.46C117.5 13.33 117.86 13.24 118.22 13.18C118.78 13.09 119.34 13.04 119.91 13.05C120.3 13.03 120.7 13.1 121.07 13.25C121.34 13.36 121.57 13.55 121.75 13.78C121.92 14.01 122.03 14.27 122.09 14.55C122.16 14.85 122.19 15.17 122.19 15.48C122.19 15.5 122.19 15.59 122.19 15.75C122.18 15.75 122.17 15.75 122.17 15.75C122.02 15.72 121.85 15.69 121.66 15.65C121.46 15.61 121.25 15.58 121.03 15.56C120.19 15.48 119.34 15.53 118.52 15.72C117.96 15.84 117.43 16.06 116.94 16.36C116.48 16.65 116.11 17.04 115.84 17.52C115.56 18.04 115.42 18.63 115.44 19.22C115.42 19.82 115.54 20.42 115.78 20.98C116 21.45 116.34 21.86 116.76 22.17C117.2 22.48 117.69 22.7 118.22 22.82C118.81 22.96 119.41 23.03 120.01 23.02C120.46 23.02 120.91 23 121.38 22.97C121.84 22.93 122.25 22.89 122.64 22.85C123.03 22.81 123.38 22.76 123.7 22.71C123.76 22.7 124.06 22.65 124.61 22.56C124.61 18.24 124.61 15.85 124.61 15.37C124.62 14.76 124.54 14.16 124.39 13.57C124.25 13.04 123.98 12.55 123.62 12.14C123.23 11.71 122.74 11.38 122.2 11.19ZM122.2 20.79C121.97 20.82 121.73 20.85 121.5 20.86C120.95 20.89 120.38 20.89 120.25 20.89C119.64 20.93 119.04 20.79 118.5 20.51C118.08 20.22 117.86 19.72 117.92 19.21C117.91 18.93 117.99 18.65 118.15 18.42C118.32 18.21 118.53 18.04 118.77 17.92C119.04 17.79 119.33 17.71 119.63 17.67C119.93 17.63 120.24 17.61 120.55 17.61C120.93 17.6 121.31 17.63 121.69 17.68C121.86 17.71 122.03 17.74 122.2 17.79C122.2 17.79 122.2 20.49 122.2 20.79Z" id="bxpWEkOH"></path><mask id="maskcmJ1UKyd9" x="113.43" y="8.86" width="13.18" height="16.16" maskUnits="userSpaceOnUse"><rect x="113.43" y="8.86" width="13.18" height="16.16" fill="white"></rect><use xlink:href="#bxpWEkOH" opacity="1" fill="black"></use></mask><path d="M75.4 11.3C73.99 10.72 72.4 10.72 70.99 11.3C70.33 11.59 69.73 12.01 69.25 12.55C68.74 13.12 68.36 13.78 68.11 14.49C67.58 16.1 67.58 17.85 68.11 19.46C68.36 20.17 68.75 20.82 69.25 21.39C69.25 21.39 69.25 21.39 69.25 21.39C69.73 21.92 70.33 22.35 70.99 22.64C72.4 23.22 73.99 23.22 75.4 22.64C76.06 22.35 76.66 21.92 77.15 21.39C77.64 20.82 78.03 20.17 78.28 19.46C78.81 17.85 78.81 16.11 78.28 14.49C78.03 13.78 77.65 13.12 77.15 12.55C76.66 12.01 76.06 11.59 75.4 11.3ZM75.33 19.83C74.38 21.01 72.66 21.19 71.48 20.24C71.33 20.12 71.19 19.98 71.07 19.83C70 18.07 70 15.87 71.07 14.11C72.02 12.93 73.74 12.75 74.92 13.7C75.07 13.82 75.21 13.96 75.33 14.11C75.9 14.95 76.18 15.95 76.13 16.97C76.18 17.99 75.9 18.99 75.33 19.83Z" id="fEp6Lq8f4"></path><mask id="maskfLmTGg6S7" x="65.71" y="8.86" width="14.97" height="16.21" maskUnits="userSpaceOnUse"><rect x="65.71" y="8.86" width="14.97" height="16.21" fill="white"></rect><use xlink:href="#fEp6Lq8f4" opacity="1" fill="black"></use></mask><path d="M86.73 20.33C86.59 20.38 86.33 20.48 85.97 20.62C85.97 20.62 85.97 20.62 85.97 20.62C85.53 20.76 85.06 20.82 84.6 20.81C84.32 20.81 84.04 20.77 83.77 20.69C83.56 20.62 83.37 20.49 83.23 20.32C83.06 20.09 82.94 19.83 82.89 19.55C82.8 19.11 82.75 18.67 82.76 18.22C82.76 17.89 82.76 16.24 82.76 13.28L87 13.28L87 11.14L82.76 11.14L82.76 8.01L80.3 8.02C80.3 14.15 80.3 17.56 80.3 18.24C80.29 18.92 80.35 19.59 80.49 20.26C80.59 20.81 80.83 21.33 81.16 21.78C81.5 22.21 81.95 22.54 82.46 22.73C83.09 22.95 83.76 23.05 84.43 23.03C85.03 23.04 85.64 22.96 86.22 22.8C86.59 22.7 86.96 22.56 87.31 22.41C87.32 22.4 87.38 22.37 87.47 22.32L86.98 20.23C86.85 20.28 86.76 20.31 86.73 20.33Z" id="f1CBkcrly"></path><mask id="maskb5bY83Gzdc" x="78.3" y="6.01" width="11.18" height="19.02" maskUnits="userSpaceOnUse"><rect x="78.3" y="6.01" width="11.18" height="19.02" fill="white"></rect><use xlink:href="#f1CBkcrly" opacity="1" fill="black"></use></mask><path d="M95.56 16.51C95.13 16.31 94.65 16.11 94.12 15.91C93.72 15.77 93.38 15.64 93.1 15.51C92.86 15.41 92.63 15.28 92.42 15.12C92.27 15.01 92.15 14.86 92.06 14.7C91.98 14.53 91.94 14.34 91.94 14.15C91.92 13.8 92.12 13.46 92.44 13.31C92.86 13.1 93.33 12.99 93.8 13.01C94.34 13 94.87 13.06 95.39 13.18C95.73 13.26 96.05 13.37 96.36 13.52C96.37 13.53 96.46 13.57 96.63 13.66L97.1 11.44C96.99 11.4 96.92 11.38 96.91 11.37C96.79 11.33 96.62 11.28 96.41 11.22C96.2 11.16 95.95 11.1 95.67 11.05C95.39 11 95.09 10.95 94.77 10.92C94.45 10.88 94.13 10.87 93.8 10.87C92.68 10.81 91.58 11.13 90.67 11.79C89.54 12.75 89.17 14.34 89.77 15.7C89.95 16.06 90.2 16.39 90.51 16.65C90.84 16.93 91.2 17.15 91.59 17.32C92.19 17.59 92.71 17.8 92.84 17.85C93.49 18.09 94.12 18.41 94.7 18.79C95.02 19.02 95.2 19.38 95.19 19.77C95.21 20.12 95.03 20.44 94.72 20.6C94.18 20.83 93.6 20.93 93.01 20.9C92.36 20.92 91.71 20.84 91.08 20.65C90.58 20.48 90.22 20.35 89.99 20.27L89.74 20.17L89.28 22.34C89.38 22.38 89.44 22.41 89.45 22.41C89.84 22.56 90.23 22.69 90.62 22.8C91.4 22.99 92.21 23.08 93.01 23.06C94.21 23.13 95.4 22.83 96.43 22.22C97.26 21.65 97.73 20.69 97.68 19.68C97.69 19.19 97.6 18.7 97.42 18.25C97.25 17.85 97 17.51 96.67 17.23C96.34 16.94 95.96 16.7 95.56 16.51Z" id="a7VNBjUQb"></path><mask id="maskc4Cr3FZ0Y" x="87.28" y="8.86" width="12.4" height="16.21" maskUnits="userSpaceOnUse"><rect x="87.28" y="8.86" width="12.4" height="16.21" fill="white"></rect><use xlink:href="#a7VNBjUQb" opacity="1" fill="black"></use></mask><path d="M136.59 14.47C136.33 13.75 135.93 13.1 135.41 12.55C134.89 12.01 134.26 11.6 133.56 11.33C132.79 11.04 131.97 10.89 131.15 10.9C130.31 10.9 129.47 10.97 128.64 11.11C127.93 11.25 127.33 11.38 126.86 11.49C126.84 11.5 126.79 11.51 126.68 11.54L126.68 26.78L129.14 26.78C129.14 24.19 129.14 22.75 129.14 22.46C129.4 22.58 129.67 22.69 129.94 22.78C130.52 22.97 131.12 23.07 131.73 23.06C132.5 23.07 133.26 22.91 133.97 22.6C134.61 22.31 135.18 21.88 135.63 21.34C136.09 20.77 136.44 20.11 136.65 19.41C136.89 18.62 137 17.81 137 16.99C137.01 16.13 136.87 15.28 136.59 14.47C136.59 14.47 136.59 14.47 136.59 14.47ZM129.14 13.32C129.31 13.28 129.51 13.25 129.75 13.22C130.21 13.17 130.67 13.15 131.13 13.15C132.04 13.11 132.92 13.47 133.54 14.13C134.19 14.94 134.52 15.96 134.45 16.99C134.45 17.51 134.4 18.03 134.28 18.54C134.19 18.98 134.01 19.39 133.76 19.75C133.52 20.09 133.21 20.36 132.84 20.54C132.42 20.74 131.95 20.84 131.47 20.83C130.99 20.83 130.51 20.74 130.05 20.57C129.73 20.44 129.43 20.28 129.14 20.09C129.14 18.73 129.14 14.67 129.14 13.32Z" id="d2ayXz6Y7x"></path><mask id="maskamZez6knt" x="124.68" y="8.9" width="14.32" height="19.87" maskUnits="userSpaceOnUse"><rect x="124.68" y="8.9" width="14.32" height="19.87" fill="white"></rect><use xlink:href="#d2ayXz6Y7x" opacity="1" fill="black"></use></mask><path d="M49.27 28.74C48.62 28.52 47.93 28.41 47.24 28.43C46.58 28.43 45.93 28.48 45.28 28.59C44.84 28.66 44.41 28.77 43.99 28.93C44.01 29.09 44.2 30.42 44.23 30.58C44.59 30.45 44.96 30.36 45.34 30.29C45.91 30.19 46.49 30.15 47.07 30.15C47.5 30.14 47.93 30.21 48.33 30.38C48.63 30.51 48.89 30.72 49.09 30.98C49.28 31.24 49.41 31.53 49.48 31.84C49.55 32.16 49.59 32.49 49.59 32.82C49.59 32.88 49.59 33.32 49.59 33.38C49.53 33.37 49.43 33.34 49.29 33.31C49.15 33.29 48.97 33.25 48.78 33.21C48.59 33.18 48.38 33.15 48.17 33.13C47.96 33.11 47.75 33.1 47.54 33.1C46.93 33.09 46.33 33.16 45.74 33.29C45.2 33.4 44.69 33.6 44.23 33.89C43.8 34.16 43.45 34.53 43.21 34.96C42.94 35.45 42.81 36 42.83 36.56C42.81 37.13 42.92 37.7 43.15 38.22C43.35 38.66 43.67 39.04 44.06 39.33C44.47 39.62 44.94 39.83 45.43 39.94C46.01 40.07 46.59 40.14 47.18 40.13C47.62 40.13 48.08 40.12 48.52 40.08C48.97 40.04 49.39 40 49.78 39.96C50.17 39.92 50.52 39.87 50.82 39.82C50.87 39.81 51.11 39.77 51.55 39.7C51.55 35.51 51.55 33.17 51.55 32.71C51.55 32.12 51.48 31.54 51.33 30.97C51.2 30.48 50.95 30.01 50.61 29.63C50.24 29.23 49.78 28.92 49.27 28.74ZM49.59 38.31C49.29 38.37 48.98 38.41 48.67 38.43C48.12 38.46 47.54 38.45 47.41 38.46C46.76 38.49 46.11 38.35 45.54 38.04C45.05 37.7 44.79 37.13 44.85 36.54C44.83 36.21 44.93 35.88 45.13 35.6C45.32 35.37 45.56 35.18 45.83 35.05C46.12 34.91 46.43 34.81 46.75 34.78C47.07 34.73 47.39 34.71 47.71 34.71C48.1 34.71 48.5 34.73 48.88 34.79C49.12 34.82 49.36 34.88 49.58 34.97C49.58 35.64 49.59 37.64 49.59 38.31Z" id="cesuyqyxp"></path><mask id="maskihuyeYZ5C" x="40.83" y="26.43" width="12.72" height="15.7" maskUnits="userSpaceOnUse"><rect x="40.83" y="26.43" width="12.72" height="15.7" fill="white"></rect><use xlink:href="#cesuyqyxp" opacity="1" fill="black"></use></mask><path d="M56.44 37.47C56.37 37.2 56.34 36.93 56.35 36.65C56.35 35.95 56.35 32.43 56.35 26.09L54.35 26.09C54.35 32.62 54.35 36.25 54.35 36.98C54.28 37.83 54.56 38.68 55.12 39.32C55.87 39.9 56.81 40.19 57.75 40.12C57.78 39.95 58 38.61 58.03 38.44C57.76 38.41 57.49 38.35 57.23 38.28C57.04 38.23 56.86 38.13 56.72 37.99C56.58 37.84 56.48 37.67 56.44 37.47Z" id="d4rKX4DUB"></path><mask id="maska1IF8wavbA" x="52.34" y="24.09" width="7.69" height="18.04" maskUnits="userSpaceOnUse"><rect x="52.34" y="24.09" width="7.69" height="18.04" fill="white"></rect><use xlink:href="#d4rKX4DUB" opacity="1" fill="black"></use></mask></defs><g><g><use xlink:href="#c1weo9r8Rq" opacity="1" fill="#f16739" fill-opacity="1"></use></g><g><use xlink:href="#cbzY5LYQy" opacity="1" fill="#fdba12" fill-opacity="1"></use></g><g><use xlink:href="#d8jH9FDCu7" opacity="1" fill="#ffffff" fill-opacity="1"></use><g mask="url(#maskgl7h6W4Pk)"><use xlink:href="#d8jH9FDCu7" opacity="1" fill-opacity="0" stroke="#000000" stroke-width="2" stroke-opacity="0.3"></use></g></g><g><use xlink:href="#eLgzRjO6k" opacity="1" fill="#ffffff" fill-opacity="1"></use><g mask="url(#maskd1SKb2qDWl)"><use xlink:href="#eLgzRjO6k" opacity="1" fill-opacity="0" stroke="#000000" stroke-width="2" stroke-opacity="0.3"></use></g></g><g><use xlink:href="#azNj7RSZS" opacity="1" fill="#ffffff" fill-opacity="1"></use><g mask="url(#maskfSnFHH4oa)"><use xlink:href="#azNj7RSZS" opacity="1" fill-opacity="0" stroke="#000000" stroke-width="2" stroke-opacity="0.3"></use></g></g><g><use xlink:href="#b9TFQo5ES" opacity="1" fill="#ffffff" fill-opacity="1"></use><g mask="url(#maska5vXp7eSWD)"><use xlink:href="#b9TFQo5ES" opacity="1" fill-opacity="0" stroke="#000000" stroke-width="2" stroke-opacity="0.3"></use></g></g><g><use xlink:href="#e2RIbB6s2i" opacity="1" fill="#ffffff" fill-opacity="1"></use><g mask="url(#maskbiMK8SuOm)"><use xlink:href="#e2RIbB6s2i" opacity="1" fill-opacity="0" stroke="#000000" stroke-width="2" stroke-opacity="0.3"></use></g></g><g><use xlink:href="#a30gci4o2F" opacity="1" fill="#ffffff" fill-opacity="1"></use><g mask="url(#maskm1gwun42)"><use xlink:href="#a30gci4o2F" opacity="1" fill-opacity="0" stroke="#000000" stroke-width="2" stroke-opacity="0.3"></use></g></g><g><use xlink:href="#bbudQhY1q" opacity="1" fill="#ffffff" fill-opacity="1"></use><g mask="url(#maskad0Mt5n5P)"><use xlink:href="#bbudQhY1q" opacity="1" fill-opacity="0" stroke="#000000" stroke-width="2" stroke-opacity="0.3"></use></g></g><g><use xlink:href="#bxpWEkOH" opacity="1" fill="#ffffff" fill-opacity="1"></use><g mask="url(#maskcmJ1UKyd9)"><use xlink:href="#bxpWEkOH" opacity="1" fill-opacity="0" stroke="#000000" stroke-width="2" stroke-opacity="0.3"></use></g></g><g><use xlink:href="#fEp6Lq8f4" opacity="1" fill="#ffffff" fill-opacity="1"></use><g mask="url(#maskfLmTGg6S7)"><use xlink:href="#fEp6Lq8f4" opacity="1" fill-opacity="0" stroke="#000000" stroke-width="2" stroke-opacity="0.3"></use></g></g><g><use xlink:href="#f1CBkcrly" opacity="1" fill="#ffffff" fill-opacity="1"></use><g mask="url(#maskb5bY83Gzdc)"><use xlink:href="#f1CBkcrly" opacity="1" fill-opacity="0" stroke="#000000" stroke-width="2" stroke-opacity="0.3"></use></g></g><g><use xlink:href="#a7VNBjUQb" opacity="1" fill="#ffffff" fill-opacity="1"></use><g mask="url(#maskc4Cr3FZ0Y)"><use xlink:href="#a7VNBjUQb" opacity="1" fill-opacity="0" stroke="#000000" stroke-width="2" stroke-opacity="0.3"></use></g></g><g><use xlink:href="#d2ayXz6Y7x" opacity="1" fill="#ffffff" fill-opacity="1"></use><g mask="url(#maskamZez6knt)"><use xlink:href="#d2ayXz6Y7x" opacity="1" fill-opacity="0" stroke="#000000" stroke-width="2" stroke-opacity="0.3"></use></g></g><g><use xlink:href="#cesuyqyxp" opacity="1" fill="#ffffff" fill-opacity="1"></use><g mask="url(#maskihuyeYZ5C)"><use xlink:href="#cesuyqyxp" opacity="1" fill-opacity="0" stroke="#000000" stroke-width="2" stroke-opacity="0.3"></use></g></g><g><use xlink:href="#d4rKX4DUB" opacity="1" fill="#ffffff" fill-opacity="1"></use><g mask="url(#maska1IF8wavbA)"><use xlink:href="#d4rKX4DUB" opacity="1" fill-opacity="0" stroke="#000000" stroke-width="2" stroke-opacity="0.3"></use></g></g></g></svg>